<?xml version="1.0" standalone="no"?>
<!DOCTYPE svg PUBLIC "-//W3C//DTD SVG 20010904//EN"
 "http://www.w3.org/TR/2001/REC-SVG-20010904/DTD/svg10.dtd">
<svg version="1.0" xmlns="http://www.w3.org/2000/svg"
 width="256.000000pt" height="256.000000pt" viewBox="0 0 256.000000 256.000000"
 preserveAspectRatio="xMidYMid meet">
<metadata>
Created by potrace 1.16, written by Peter Selinger 2001-2019
</metadata>
<g transform="translate(0.000000,256.000000) scale(0.100000,-0.100000)"
fill="#000000" stroke="none">
<path d="M0 1280 l0 -1280 1280 0 1280 0 0 1280 0 1280 -1280 0 -1280 0 0
-1280z m2008 967 l252 -253 -2 -864 -3 -865 -27 -50 c-31 -59 -67 -94 -128
-126 l-45 -24 -775 0 -775 0 -45 24 c-61 32 -97 67 -128 126 l-27 50 0 1015 0
1015 24 45 c40 77 98 125 181 151 14 4 300 8 635 8 l610 1 253 -253z"/>
<path d="M529 2357 c-24 -13 -57 -43 -74 -66 l-30 -43 -3 -714 -2 -714 860 0
860 0 0 539 0 539 -137 4 c-121 3 -144 6 -183 27 -61 32 -97 67 -128 126 -24
46 -27 62 -30 188 l-4 137 -542 0 -543 0 -44 -23z m479 -269 c8 -8 12 -49 12
-120 l0 -108 468 0 c351 0 471 -3 480 -12 17 -17 17 -799 0 -816 -17 -17
-1359 -17 -1376 0 -17 17 -17 1039 0 1056 17 17 399 17 416 0z"/>
<path d="M700 1920 l0 -60 100 0 100 0 0 60 0 60 -100 0 -100 0 0 -60z"/>
<path d="M700 1680 l0 -60 100 0 100 0 0 60 0 60 -100 0 -100 0 0 -60z"/>
<path d="M1020 1680 l0 -60 100 0 100 0 0 60 0 60 -100 0 -100 0 0 -60z"/>
<path d="M1340 1680 l0 -60 100 0 100 0 0 60 0 60 -100 0 -100 0 0 -60z"/>
<path d="M1660 1680 l0 -60 100 0 100 0 0 60 0 60 -100 0 -100 0 0 -60z"/>
<path d="M700 1440 l0 -60 100 0 100 0 0 60 0 60 -100 0 -100 0 0 -60z"/>
<path d="M1020 1440 l0 -60 100 0 100 0 0 60 0 60 -100 0 -100 0 0 -60z"/>
<path d="M1340 1440 l0 -60 100 0 100 0 0 60 0 60 -100 0 -100 0 0 -60z"/>
<path d="M1660 1440 l0 -60 100 0 100 0 0 60 0 60 -100 0 -100 0 0 -60z"/>
<path d="M700 1200 l0 -60 100 0 100 0 0 60 0 60 -100 0 -100 0 0 -60z"/>
<path d="M1020 1200 l0 -60 100 0 100 0 0 60 0 60 -100 0 -100 0 0 -60z"/>
<path d="M1340 1200 l0 -60 100 0 100 0 0 60 0 60 -100 0 -100 0 0 -60z"/>
<path d="M1660 1200 l0 -60 100 0 100 0 0 60 0 60 -100 0 -100 0 0 -60z"/>
<path d="M1780 2240 c0 -136 93 -228 221 -218 l40 3 -131 130 -130 130 0 -45z"/>
<path d="M422 507 c3 -191 3 -194 30 -234 15 -22 44 -51 65 -64 l38 -24 726 0
725 0 41 27 c22 15 51 44 64 65 23 36 24 48 27 231 l4 192 -862 0 -862 0 4
-193z m356 123 c9 -16 19 -30 22 -30 3 0 13 14 22 30 14 25 23 30 56 30 21 0
43 -5 50 -12 21 -21 13 -75 -20 -143 l-32 -65 32 -65 c33 -68 41 -122 20 -143
-7 -7 -29 -12 -50 -12 -33 0 -42 5 -56 30 -9 16 -19 30 -22 30 -3 0 -13 -14
-22 -30 -14 -25 -23 -30 -56 -30 -21 0 -43 5 -50 12 -21 21 -13 75 20 143 l32
65 -32 65 c-33 68 -41 122 -20 143 7 7 29 12 50 12 33 0 42 -5 56 -30z m310
18 c8 -8 12 -58 12 -160 l0 -148 68 0 c40 0 73 -5 80 -12 16 -16 16 -80 0 -96
-17 -17 -239 -17 -256 0 -17 17 -17 399 0 416 7 7 28 12 48 12 20 0 41 -5 48
-12z m480 0 c16 -16 15 -83 -1 -96 -7 -6 -40 -12 -72 -14 -45 -2 -60 -7 -60
-18 0 -9 15 -17 41 -22 25 -5 52 -20 70 -39 26 -27 29 -37 29 -99 0 -65 -2
-72 -33 -102 -31 -32 -36 -33 -122 -37 -105 -4 -120 4 -120 59 0 49 13 58 85
62 45 2 60 7 60 18 0 9 -15 17 -41 22 -25 5 -52 20 -70 39 -26 27 -29 37 -29
99 0 59 3 72 25 95 14 15 34 31 45 35 32 14 179 12 193 -2z m170 -18 c9 -16
19 -30 22 -30 3 0 13 14 22 30 14 25 23 30 56 30 21 0 43 -5 50 -12 21 -21 13
-75 -20 -143 l-32 -65 32 -65 c33 -68 41 -122 20 -143 -7 -7 -29 -12 -50 -12
-33 0 -42 5 -56 30 -9 16 -19 30 -22 30 -3 0 -13 -14 -22 -30 -14 -25 -23 -30
-56 -30 -21 0 -43 5 -50 12 -21 21 -13 75 20 143 l32 65 -32 65 c-33 68 -41
122 -20 143 7 7 29 12 50 12 33 0 42 -5 56 -30z"/>
</g>
</svg>
