<svg id="visual" viewBox="0 0 1024 768" width="1024" height="768" xmlns="http://www.w3.org/2000/svg" xmlns:xlink="http://www.w3.org/1999/xlink" version="1.1"><rect x="0" y="0" width="1024" height="768" fill="#1f2933"></rect><path d="M0 511L24.3 509.8C48.7 508.7 97.3 506.3 146.2 497C195 487.7 244 471.3 292.8 463.2C341.7 455 390.3 455 439 467.5C487.7 480 536.3 505 585 516C633.7 527 682.3 524 731.2 524.8C780 525.7 829 530.3 877.8 517.5C926.7 504.7 975.3 474.3 999.7 459.2L1024 444L1024 769L999.7 769C975.3 769 926.7 769 877.8 769C829 769 780 769 731.2 769C682.3 769 633.7 769 585 769C536.3 769 487.7 769 439 769C390.3 769 341.7 769 292.8 769C244 769 195 769 146.2 769C97.3 769 48.7 769 24.3 769L0 769Z" fill="#1f2933"></path><path d="M0 577L24.3 579.2C48.7 581.3 97.3 585.7 146.2 573.3C195 561 244 532 292.8 529.7C341.7 527.3 390.3 551.7 439 552.3C487.7 553 536.3 530 585 532.3C633.7 534.7 682.3 562.3 731.2 575.5C780 588.7 829 587.3 877.8 578.8C926.7 570.3 975.3 554.7 999.7 546.8L1024 539L1024 769L999.7 769C975.3 769 926.7 769 877.8 769C829 769 780 769 731.2 769C682.3 769 633.7 769 585 769C536.3 769 487.7 769 439 769C390.3 769 341.7 769 292.8 769C244 769 195 769 146.2 769C97.3 769 48.7 769 24.3 769L0 769Z" fill="#2b3641"></path><path d="M0 612L24.3 616.2C48.7 620.3 97.3 628.7 146.2 625.3C195 622 244 607 292.8 604.2C341.7 601.3 390.3 610.7 439 614C487.7 617.3 536.3 614.7 585 607.8C633.7 601 682.3 590 731.2 594.8C780 599.7 829 620.3 877.8 619.2C926.7 618 975.3 595 999.7 583.5L1024 572L1024 769L999.7 769C975.3 769 926.7 769 877.8 769C829 769 780 769 731.2 769C682.3 769 633.7 769 585 769C536.3 769 487.7 769 439 769C390.3 769 341.7 769 292.8 769C244 769 195 769 146.2 769C97.3 769 48.7 769 24.3 769L0 769Z" fill="#38444f"></path><path d="M0 685L24.3 676C48.7 667 97.3 649 146.2 644.7C195 640.3 244 649.7 292.8 650C341.7 650.3 390.3 641.7 439 643.3C487.7 645 536.3 657 585 654.5C633.7 652 682.3 635 731.2 628.8C780 622.7 829 627.3 877.8 627C926.7 626.7 975.3 621.3 999.7 618.7L1024 616L1024 769L999.7 769C975.3 769 926.7 769 877.8 769C829 769 780 769 731.2 769C682.3 769 633.7 769 585 769C536.3 769 487.7 769 439 769C390.3 769 341.7 769 292.8 769C244 769 195 769 146.2 769C97.3 769 48.7 769 24.3 769L0 769Z" fill="#45525e"></path><path d="M0 690L24.3 695.5C48.7 701 97.3 712 146.2 711.5C195 711 244 699 292.8 690.3C341.7 681.7 390.3 676.3 439 676.7C487.7 677 536.3 683 585 690.8C633.7 698.7 682.3 708.3 731.2 715.7C780 723 829 728 877.8 727.5C926.7 727 975.3 721 999.7 718L1024 715L1024 769L999.7 769C975.3 769 926.7 769 877.8 769C829 769 780 769 731.2 769C682.3 769 633.7 769 585 769C536.3 769 487.7 769 439 769C390.3 769 341.7 769 292.8 769C244 769 195 769 146.2 769C97.3 769 48.7 769 24.3 769L0 769Z" fill="#52606d"></path></svg>